<svg width="150" height="40" viewBox="0 0 150 40" fill="none" xmlns="http://www.w3.org/2000/svg">
<path fill-rule="evenodd" clip-rule="evenodd" d="M14.2553 0H0.0359075L19.7204 19.9854L0 40H14.2194L33.9398 19.9854L14.2553 0ZM52.6332 15.5815L37.2792 0H23.4404L43.1249 19.9854L23.4045 40H37.2432L52.6332 24.3821V40H62.6873V0H52.6332V15.5815ZM112.749 0H126.595L106.875 20.0219L126.56 40H112.714L97.3667 24.4185V40H87.3126V0H97.3667V15.6179L112.749 0ZM150 0H135.781L116.06 20.0219L135.745 40H149.957L130.28 20.0219L150 0ZM69.9694 0H70.6875H79.3054H80.0235V40H79.3054H70.6875H69.9694V0Z" fill="#CF2C67" style="fill:#CF2C67;fill:color(display-p3 0.8118 0.1725 0.4039);fill-opacity:1;"/>
</svg>
